# xmcd CD database file
#
# Track frame offsets:
#	150
#	2872
#	24605
#	60432
#	84492
#	105115
#	112582
#	132365
#	156902
#	179215
#	202992
#
# Disc length: 3053 seconds
#
# Revision: 0
# Processed by: cddbd v1.5.1PL0 Copyright (c) Steve Scherf et al.
# Submitted via: CDex 1.51
#
DISCID=820beb0b
DTITLE=James McMillan - Up All Day Up All Night
DYEAR=1900
DGENRE=Jazz
TTITLE0=Intro (Quiet Money Time)
TTITLE1=Deliberate
TTITLE2=The Quiet Money Vibe
TTITLE3=If I Were A Bell
TTITLE4=You Made It Happen
TTITLE5=Interlude
TTITLE6=A Change Of Rhythm
TTITLE7=Not To Forget
TTITLE8=Music's Now My Inspiration
TTITLE9=Explain Yourself
TTITLE10=Make Sure You're Sure
EXTD=
EXTT0=
EXTT1=
EXTT2=
EXTT3=
EXTT4=
EXTT5=
EXTT6=
EXTT7=
EXTT8=
EXTT9=
EXTT10=
PLAYORDER=
